<svg width="15" height="9" viewBox="0 0 15 9" fill="none" xmlns="http://www.w3.org/2000/svg">
<g clip-path="url(#clip0_97_418)">
<path d="M1.37458 5.30357L11.9817 5.30357L9.65137 7.63393C9.32994 7.95536 9.32994 8.4375 9.65137 8.75893C9.9728 9.08036 10.4549 9.08036 10.7764 8.75893L14.4728 5.0625C14.7942 4.74107 14.7942 4.25893 14.4728 3.9375L10.7764 0.241071C10.4549 -0.0803579 9.9728 -0.080358 9.65137 0.241071C9.32994 0.5625 9.32994 1.04464 9.65137 1.36607L11.9817 3.69643L1.37458 3.69643C0.972795 3.69643 0.571009 4.01786 0.571009 4.5C0.571009 4.98214 0.972795 5.30357 1.37458 5.30357Z" fill="#4089ED"/>
</g>
<defs>
<clipPath id="clip0_97_418">
<rect width="14.1429" height="9" fill="white" transform="translate(14.7139 9) rotate(-180)"/>
</clipPath>
</defs>
</svg>
