<svg width="62" height="85" viewBox="0 0 62 85" fill="none" xmlns="http://www.w3.org/2000/svg">
<path d="M61.8575 26.4806L61.6658 66.2815L61.6339 73.9797C61.6019 80.0968 55.7883 85.0319 48.6331 85L12.8891 84.8403C5.74985 84.7924 -0.0318111 79.8093 0.000131725 73.6762L0.223732 26.1772C0.239703 21.226 4.07285 17.0415 9.31148 15.652L9.32745 13.0966V11.7869L52.8815 11.9946L52.8656 15.8596C58.0882 17.313 61.8735 21.5135 61.8575 26.4806Z" fill="url(#paint0_linear_97_1039)"/>
<path d="M56.1234 1.77283V2.1242L56.0915 6.27678L56.0595 10.3495V10.8446C56.0595 11.6112 55.4207 12.2341 54.654 12.2341H54.3186L52.2104 12.2182L49.8946 12.2022L47.7863 12.1862L45.4705 12.1702L43.3303 12.1383L41.0144 12.1223L38.9062 12.1064L36.5744 12.0904L34.4502 12.0744L32.1343 12.0584L30.0261 12.0265L27.7102 12.0105L25.602 11.9945L23.2702 11.9786L21.146 11.9626L18.8461 11.9466L16.7378 11.9307L14.422 11.9147L12.2978 11.8987L9.98193 11.8828L7.85773 11.8668H7.52233C6.7557 11.8668 6.13281 11.2279 6.13281 10.4613V10.4453V10.0939L6.1967 1.88463V1.38952C6.1967 0.622886 6.83556 0 7.61816 0H7.95356L12.3936 0.0319429L16.8337 0.0638858L18.9579 0.0798572L21.2737 0.0958286L23.382 0.1118L27.8061 0.159714L30.1219 0.175686L32.2301 0.191657L34.546 0.207629L36.6542 0.2236L38.9701 0.239572L41.0783 0.255543L43.3942 0.271514L45.5024 0.287486L47.8502 0.319429L49.9584 0.3354L52.2743 0.351372L54.3985 0.367343H54.7339C55.5165 0.383315 56.1234 1.0062 56.1234 1.77283Z" fill="url(#paint1_linear_97_1039)"/>
<path d="M56.1234 2.14019L56.0915 6.27679L56.0595 10.3495L54.1589 10.3335L51.6354 10.3176L49.3196 10.3016H46.7801L44.4643 10.2856L41.9408 10.2697L39.6249 10.2537H37.0855L34.7696 10.2377L32.2301 10.2217L29.9303 10.2058H27.3908L25.0749 10.1898L22.5355 10.1738L20.2196 10.1579H17.6961L15.3803 10.1419L12.8408 10.1259L10.525 10.1099H8.00147L6.13281 10.094L6.1967 1.88464L10.6368 1.90061L15.4761 1.93256L17.792 1.94853L20.3314 1.9645H22.6473L27.4866 1.99644L30.0261 2.01242H32.3419L34.8814 2.02839L37.1813 2.04436L39.7207 2.06033H42.0366L44.5761 2.0763L46.876 2.09227L49.4154 2.10824H51.7313L54.2707 2.12422L56.1234 2.14019Z" fill="url(#paint2_linear_97_1039)"/>
<path d="M61.8105 34.8841L0.176758 34.5927L0.0475233 61.9198L61.6813 62.2112L61.8105 34.8841Z" fill="#F7F9FC"/>
<path d="M61.8213 34.884L0.1875 34.5927L0.164244 39.5119L61.798 39.8032L61.8213 34.884Z" fill="#FBFCF7"/>
<path d="M24.2129 45.5803L20.2361 45.5644L20.252 41.5715L14.7738 41.5555L14.7579 45.5324L10.781 45.5165L10.749 50.9787L14.7259 50.9947L14.7099 54.9875L20.1881 55.0035L20.2041 51.0266L24.181 51.0426L24.2129 45.5803Z" fill="url(#paint3_linear_97_1039)"/>
<path d="M51.2364 46.906L31.5276 46.8102C31.0006 46.8102 30.5693 46.379 30.5693 45.8519V45.4047C30.5693 44.8776 31.0006 44.4464 31.5276 44.4464L51.2364 44.5422C51.7634 44.5422 52.1947 44.9735 52.1947 45.5005V45.9477C52.1947 46.4748 51.7634 46.906 51.2364 46.906Z" fill="url(#paint4_linear_97_1039)"/>
<path opacity="0.5" d="M51.2208 52.7675L31.512 52.6716C30.9849 52.6716 30.5537 52.2404 30.5537 51.7133V51.2661C30.5537 50.7391 30.9849 50.3079 31.512 50.3079L51.2208 50.4037C51.7478 50.4037 52.179 50.8349 52.179 51.362V51.8092C52.179 52.3362 51.7478 52.7675 51.2208 52.7675Z" fill="url(#paint5_linear_97_1039)"/>
<path opacity="0.08" d="M6.13281 1.77286V2.12423L6.16475 6.2768L6.1967 10.3335V10.8287C6.1967 11.5953 6.83556 12.2182 7.60218 12.2182H7.93758L10.0618 12.2022L12.3776 12.1862L14.4859 12.1703L16.8017 12.1543L18.91 12.1383L21.2258 12.1223L23.3341 12.1064L25.6499 12.0904L27.7741 12.0744L30.09 12.0585L32.1982 12.0425L34.5141 12.0265L36.6223 12.0105L38.9381 11.9946L41.0624 11.9786L43.3782 11.9626L45.4864 11.9467L47.8023 11.9307L49.9105 11.9147L52.2264 11.8987L54.3506 11.8828H54.686C55.4526 11.8828 56.0755 11.2439 56.0755 10.4773V10.4613V10.1099C31.3677 11.18 7.52233 0.367371 7.52233 0.367371C6.7557 0.383342 6.13281 1.00623 6.13281 1.77286Z" fill="#1A6FB5"/>
<defs>
<linearGradient id="paint0_linear_97_1039" x1="0.000131398" y1="11.3333" x2="57.139" y2="90.1944" gradientUnits="userSpaceOnUse">
<stop stop-color="#6CBCFC"/>
<stop offset="1" stop-color="#458DFC"/>
</linearGradient>
<linearGradient id="paint1_linear_97_1039" x1="-629.93" y1="-39.931" x2="-27.6043" y2="2.02206" gradientUnits="userSpaceOnUse">
<stop stop-color="#B0F4FF"/>
<stop offset="0.0525488" stop-color="#A9F2FF"/>
<stop offset="0.2879" stop-color="#8DE8FE"/>
<stop offset="0.5247" stop-color="#79E1FD"/>
<stop offset="0.7618" stop-color="#6DDDFC"/>
<stop offset="1" stop-color="#69DCFC"/>
</linearGradient>
<linearGradient id="paint2_linear_97_1039" x1="6.13971" y1="6.11313" x2="56.1255" y2="6.11313" gradientUnits="userSpaceOnUse">
<stop stop-color="#B0F4FF"/>
<stop offset="0.0525488" stop-color="#A9F2FF"/>
<stop offset="0.2879" stop-color="#8DE8FE"/>
<stop offset="0.5247" stop-color="#79E1FD"/>
<stop offset="0.7618" stop-color="#6DDDFC"/>
<stop offset="1" stop-color="#69DCFC"/>
</linearGradient>
<linearGradient id="paint3_linear_97_1039" x1="21.9782" y1="43.0953" x2="12.5977" y2="53.9124" gradientUnits="userSpaceOnUse">
<stop stop-color="#6CBCFC"/>
<stop offset="1" stop-color="#458DFC"/>
</linearGradient>
<linearGradient id="paint4_linear_97_1039" x1="52.3847" y1="45.671" x2="28.8866" y2="45.671" gradientUnits="userSpaceOnUse">
<stop stop-color="#6CBCFC"/>
<stop offset="1" stop-color="#458DFC"/>
</linearGradient>
<linearGradient id="paint5_linear_97_1039" x1="30.5522" y1="51.5321" x2="52.1794" y2="51.5321" gradientUnits="userSpaceOnUse">
<stop stop-color="#6CBCFC"/>
<stop offset="1" stop-color="#458DFC"/>
</linearGradient>
</defs>
</svg>
