<svg width="80" height="72" viewBox="0 0 80 72" fill="none" xmlns="http://www.w3.org/2000/svg">
<g clip-path="url(#clip0_97_1096)">
<path d="M66.4759 14.0107H13.2588V71.1274H66.4759V14.0107Z" fill="url(#paint0_linear_97_1096)"/>
<path d="M13.0386 14.0107C13.1028 14.0107 13.167 14.0383 13.2588 14.0658C13.2588 33.068 13.2588 52.0701 13.2588 71.0998C9.13905 71.421 5.66159 70.3841 2.8998 67.7233C0.945449 65.8332 0.0003863 63.6127 0.0003863 61.0987C0.0003863 52.1986 0.0003863 43.3077 0.0003863 34.4076C0.0003863 31.0127 -0.00878906 27.6178 -0.00878906 24.2229C-0.00878906 20.1215 2.20247 17.1395 6.26716 15.1209C8.35914 14.0933 10.6805 13.9373 13.0386 14.0107Z" fill="url(#paint1_linear_97_1096)"/>
<path d="M57.1813 14.0016C59.5578 14.0016 59.7963 14.0016 62.1636 14.0016C62.1636 33.068 62.1636 52.0701 62.1636 71.109C46.0057 71.109 33.7842 71.109 17.5713 71.109C17.5713 52.0793 17.5713 33.0771 17.5713 14.0199C19.9385 14.0199 20.4524 14.0199 22.8655 14.0199C22.8655 13.7813 22.8655 13.5978 22.8655 13.4235C22.8655 11.3774 22.8747 9.32212 22.8563 7.27601C22.8379 5.84466 23.2233 4.59681 24.3427 3.62422C25.1318 2.94524 26.0401 2.59658 27.0678 2.59658C30.2516 2.5874 33.4263 2.5874 36.6102 2.5874C41.9594 2.5874 47.3178 2.59658 52.6671 2.5874C54.0709 2.5874 55.2362 3.04617 56.1537 4.11051C56.8877 4.96382 57.163 5.96394 57.163 7.08333C57.1538 9.23954 57.163 11.3958 57.163 13.552C57.1538 13.6712 57.163 13.8089 57.1813 14.0016ZM28.6093 14.0016C28.8295 14.0016 28.9946 14.0016 29.1598 14.0016C31.6922 14.0016 34.2338 14.0016 36.7662 14.0016C41.5006 14.0016 46.2443 14.0016 50.9788 14.0107C51.355 14.0107 51.4376 13.8914 51.4376 13.5336C51.4192 11.9279 51.4376 10.3222 51.4376 8.71654C51.4376 8.58809 51.4192 8.45963 51.4009 8.322C43.7853 8.322 36.2156 8.322 28.6093 8.322C28.6093 10.2121 28.6093 12.0656 28.6093 14.0016Z" fill="white"/>
<mask id="mask0_97_1096" style="mask-type:alpha" maskUnits="userSpaceOnUse" x="17" y="2" width="46" height="70">
<path d="M57.1804 14.0016C59.5568 14.0016 59.7953 14.0016 62.1626 14.0016C62.1626 33.068 62.1626 52.0701 62.1626 71.109C46.0048 71.109 33.7832 71.109 17.5703 71.109C17.5703 52.0793 17.5703 33.0771 17.5703 14.0199C19.9376 14.0199 20.4514 14.0199 22.8645 14.0199C22.8645 13.7813 22.8645 13.5978 22.8645 13.4235C22.8645 11.3774 22.8737 9.32212 22.8553 7.27601C22.837 5.84466 23.2223 4.59681 24.3417 3.62422C25.1308 2.94524 26.0392 2.59658 27.0668 2.59658C30.2507 2.5874 33.4253 2.5874 36.6092 2.5874C41.9584 2.5874 47.3168 2.59658 52.6661 2.5874C54.0699 2.5874 55.2352 3.04617 56.1527 4.11051C56.8867 4.96382 57.162 5.96394 57.162 7.08333C57.1528 9.23954 57.162 11.3958 57.162 13.552C57.1528 13.6712 57.162 13.8089 57.1804 14.0016ZM28.6083 14.0016C28.8285 14.0016 28.9936 14.0016 29.1588 14.0016C31.6912 14.0016 34.2328 14.0016 36.7652 14.0016C41.4997 14.0016 46.2433 14.0016 50.9778 14.0107C51.354 14.0107 51.4366 13.8914 51.4366 13.5336C51.4182 11.9279 51.4366 10.3222 51.4366 8.71654C51.4366 8.58809 51.4182 8.45963 51.3999 8.322C43.7843 8.322 36.2147 8.322 28.6083 8.322C28.6083 10.2121 28.6083 12.0656 28.6083 14.0016Z" fill="#F7F9FC"/>
</mask>
<g mask="url(#mask0_97_1096)">
<path d="M58.096 0H21V14.02H58.096V0Z" fill="url(#paint2_linear_97_1096)"/>
</g>
<path d="M80.0005 24.0762C80.0005 20.2959 77.936 17.4791 74.2659 15.433C72.0087 14.176 69.4488 13.9374 66.8246 13.9925C66.4209 14.0016 66.476 14.2127 66.476 14.4329C66.476 21.0391 66.476 27.6362 66.476 34.2425C66.476 45.8493 66.476 57.447 66.4668 69.0538C66.4668 69.7236 66.4668 70.3934 66.4668 71.1183C68.1184 71.1733 69.6873 71.1825 71.2288 70.8155C76.4404 69.586 79.9913 65.7048 79.9913 61.1263C80.0096 48.7854 80.0005 36.4262 80.0005 24.0762Z" fill="url(#paint3_linear_97_1096)"/>
<path d="M44.2165 46.7852C44.2165 47.9688 44.2165 49.0882 44.2165 50.2168C44.2165 51.4921 44.2165 52.7675 44.2165 54.0337C44.2165 54.7953 43.8311 55.199 43.0787 55.199C41.0051 55.2082 38.9315 55.2082 36.8578 55.199C36.1697 55.199 35.7843 54.7677 35.7843 54.0429C35.7843 51.7674 35.7843 49.4919 35.7843 47.2164C35.7843 47.088 35.7843 46.9503 35.7843 46.7852C35.61 46.7852 35.4815 46.7852 35.3439 46.7852C33.1051 46.7852 30.8571 46.7852 28.6184 46.7852C27.7283 46.7852 27.3613 46.4273 27.3613 45.5373C27.3613 43.5646 27.3613 41.5919 27.3613 39.6192C27.3613 38.72 27.7192 38.3622 28.6092 38.3622C30.8388 38.3622 33.0684 38.3622 35.298 38.3622C35.4448 38.3622 35.5825 38.3622 35.7751 38.3622C35.7751 38.2154 35.7751 38.0961 35.7751 37.9768C35.7751 35.7013 35.7751 33.4258 35.7751 31.1504C35.7751 30.3062 36.1513 29.9392 36.9955 29.9392C38.9682 29.9392 40.9409 29.9392 42.9136 29.9392C43.8403 29.9392 44.1981 30.2879 44.1981 31.2329C44.2073 33.4901 44.1981 35.738 44.1981 37.9952C44.1981 38.1053 44.1981 38.2154 44.1981 38.3714C44.3449 38.3714 44.4734 38.3714 44.5927 38.3714C46.8682 38.3714 49.1436 38.3714 51.4191 38.3805C52.2541 38.3805 52.6119 38.7476 52.6119 39.5825C52.6119 41.5644 52.6119 43.5463 52.6119 45.5282C52.6119 46.4365 52.2633 46.7852 51.3733 46.7852C49.1069 46.7852 46.8406 46.7852 44.5835 46.7944C44.4917 46.7852 44.3816 46.7852 44.2165 46.7852Z" fill="url(#paint4_linear_97_1096)"/>
</g>
<defs>
<linearGradient id="paint0_linear_97_1096" x1="13.2601" y1="42.5656" x2="66.4734" y2="42.5656" gradientUnits="userSpaceOnUse">
<stop stop-color="#B0F4FF"/>
<stop offset="1" stop-color="#69DCFC"/>
</linearGradient>
<linearGradient id="paint1_linear_97_1096" x1="0.000386301" y1="42.5746" x2="13.2601" y2="42.5746" gradientUnits="userSpaceOnUse">
<stop stop-color="#6CBCFC"/>
<stop offset="1" stop-color="#458DFC"/>
</linearGradient>
<linearGradient id="paint2_linear_97_1096" x1="20.9962" y1="7.00849" x2="58.0944" y2="7.00849" gradientUnits="userSpaceOnUse">
<stop stop-color="#6CBCFC"/>
<stop offset="1" stop-color="#458DFC"/>
</linearGradient>
<linearGradient id="paint3_linear_97_1096" x1="66.4691" y1="42.569" x2="80.0012" y2="42.569" gradientUnits="userSpaceOnUse">
<stop stop-color="#6CBCFC"/>
<stop offset="1" stop-color="#458DFC"/>
</linearGradient>
<linearGradient id="paint4_linear_97_1096" x1="27.367" y1="42.5783" x2="52.6303" y2="42.5783" gradientUnits="userSpaceOnUse">
<stop stop-color="#6CBCFC"/>
<stop offset="1" stop-color="#458DFC"/>
</linearGradient>
<clipPath id="clip0_97_1096">
<rect width="80" height="71.1549" fill="white"/>
</clipPath>
</defs>
</svg>
