<svg width="68" height="95" viewBox="0 0 68 95" fill="none" xmlns="http://www.w3.org/2000/svg">
<g clip-path="url(#clip0_97_1017)">
<path d="M64.9697 0H2.32971C1.04143 0 0 1.02822 0 2.30017V92.7074C0 93.9794 1.04143 95.0076 2.32971 95.0076H64.9697C66.258 95.0076 67.2994 93.9794 67.2994 92.7074V2.30017C67.2917 1.02822 66.2502 0 64.9697 0Z" fill="url(#paint0_linear_97_1017)"/>
<path d="M60.8583 4.09766H6.43401C5.1843 4.09766 4.16602 5.10303 4.16602 6.34451V81.0923C4.16602 82.3338 5.1843 83.3316 6.43401 83.3316H60.8583C62.1157 83.3316 63.1263 82.3262 63.1263 81.0923V6.34451C63.1263 5.10303 62.1157 4.09766 60.8583 4.09766Z" fill="white"/>
<path d="M44.7733 39.636H22.5254C21.5071 39.636 20.6816 38.8211 20.6816 37.8157V15.8422C20.6816 14.8369 21.5071 14.0219 22.5254 14.0219H44.7733C45.7916 14.0219 46.617 14.8369 46.617 15.8422V37.8081C46.617 38.8135 45.7916 39.636 44.7733 39.636Z" fill="url(#paint1_linear_97_1017)"/>
<path d="M33.6498 92.5474C35.5414 92.5474 37.0749 91.0334 37.0749 89.1657C37.0749 87.2981 35.5414 85.7841 33.6498 85.7841C31.7581 85.7841 30.2246 87.2981 30.2246 89.1657C30.2246 91.0334 31.7581 92.5474 33.6498 92.5474Z" fill="white"/>
<path d="M53.0353 51.015H14.2556C13.2759 51.015 12.4736 50.2229 12.4736 49.2556C12.4736 48.2883 13.2759 47.4962 14.2556 47.4962H53.0276C54.0073 47.4962 54.8096 48.2883 54.8096 49.2556C54.8096 50.2229 54.015 51.015 53.0353 51.015Z" fill="url(#paint2_linear_97_1017)"/>
<path opacity="0.6" d="M46.4706 60.7641H13.6077C12.9829 60.7641 12.4814 60.2614 12.4814 59.6521V59.5302C12.4814 58.9133 12.9906 58.4182 13.6077 58.4182H46.4706C47.0954 58.4182 47.5969 58.9209 47.5969 59.5302V59.6521C47.6046 60.2614 47.0954 60.7641 46.4706 60.7641Z" fill="url(#paint3_linear_97_1017)"/>
<path opacity="0.3" d="M40.2142 66.9562H13.4996C12.9365 66.9562 12.4736 66.4992 12.4736 65.9432V65.6081C12.4736 65.0521 12.9365 64.5951 13.4996 64.5951H40.2065C40.7696 64.5951 41.2325 65.0521 41.2325 65.6081V65.9432C41.2325 66.4992 40.7696 66.9562 40.2142 66.9562Z" fill="url(#paint4_linear_97_1017)"/>
<path opacity="0.6" d="M43.5777 72.6914H13.5614C12.9674 72.6914 12.4814 72.2116 12.4814 71.6251V71.4119C12.4814 70.8254 12.9674 70.3456 13.5614 70.3456H43.5777C44.1717 70.3456 44.6577 70.8254 44.6577 71.4119V71.6251C44.6577 72.204 44.1717 72.6914 43.5777 72.6914Z" fill="url(#paint5_linear_97_1017)"/>
<path d="M33.717 26.1208C35.9445 26.1208 37.7502 24.3141 37.7502 22.0854C37.7502 19.8566 35.9445 18.05 33.717 18.05C31.4894 18.05 29.6837 19.8566 29.6837 22.0854C29.6837 24.3141 31.4809 26.1208 33.717 26.1208ZM33.717 28.1385C31.0253 28.1385 25.6504 29.4892 25.6504 32.1739V33.1869C25.6504 33.7441 26.106 34.2 26.6629 34.2H40.7879C41.3447 34.2 41.8004 33.7441 41.8004 33.1869V32.1739C41.7835 29.4977 36.4086 28.1385 33.717 28.1385Z" fill="white"/>
</g>
<defs>
<linearGradient id="paint0_linear_97_1017" x1="4.07698" y1="45.0301" x2="67.3445" y2="50.4539" gradientUnits="userSpaceOnUse">
<stop stop-color="#6CBCFC"/>
<stop offset="1" stop-color="#458DFC"/>
</linearGradient>
<linearGradient id="paint1_linear_97_1017" x1="18.6704" y1="19.2924" x2="48.4651" y2="34.6685" gradientUnits="userSpaceOnUse">
<stop stop-color="#B0F4FF"/>
<stop offset="0.0856277" stop-color="#A3F0FE"/>
<stop offset="0.2972" stop-color="#8AE7FD"/>
<stop offset="0.5161" stop-color="#77E1FD"/>
<stop offset="0.7451" stop-color="#6DDDFC"/>
<stop offset="1" stop-color="#69DCFC"/>
</linearGradient>
<linearGradient id="paint2_linear_97_1017" x1="54.8134" y1="49.257" x2="12.4809" y2="49.257" gradientUnits="userSpaceOnUse">
<stop stop-color="#6CBCFC"/>
<stop offset="1" stop-color="#458DFC"/>
</linearGradient>
<linearGradient id="paint3_linear_97_1017" x1="47.6024" y1="59.5878" x2="12.481" y2="59.5878" gradientUnits="userSpaceOnUse">
<stop stop-color="#6CBCFC"/>
<stop offset="1" stop-color="#458DFC"/>
</linearGradient>
<linearGradient id="paint4_linear_97_1017" x1="41.2333" y1="65.7799" x2="12.4809" y2="65.7799" gradientUnits="userSpaceOnUse">
<stop stop-color="#6CBCFC"/>
<stop offset="1" stop-color="#458DFC"/>
</linearGradient>
<linearGradient id="paint5_linear_97_1017" x1="44.6571" y1="71.5124" x2="12.481" y2="71.5124" gradientUnits="userSpaceOnUse">
<stop stop-color="#6CBCFC"/>
<stop offset="1" stop-color="#458DFC"/>
</linearGradient>
<clipPath id="clip0_97_1017">
<rect width="67.2917" height="95" fill="white"/>
</clipPath>
</defs>
</svg>
